<svg width="30" height="30" fill="none" xmlns="http://www.w3.org/2000/svg"><path d="M14.982 0c2.079 0 4.026.394 5.842 1.183a15.433 15.433 0 0 1 4.767 3.208 15.06 15.06 0 0 1 3.226 4.749C29.606 10.956 30 12.903 30 14.982c0 2.079-.394 4.026-1.183 5.842a15.276 15.276 0 0 1-3.226 4.767 15.276 15.276 0 0 1-4.767 3.226C19.008 29.606 17.061 30 14.982 30c-2.079 0-4.026-.394-5.842-1.183a15.06 15.06 0 0 1-4.75-3.226 15.433 15.433 0 0 1-3.207-4.767C.394 19.008 0 17.061 0 14.982c0-2.079.394-4.026 1.183-5.842A15.212 15.212 0 0 1 4.39 4.39a15.212 15.212 0 0 1 4.75-3.206C10.956.394 12.903 0 14.982 0Zm0 23.44c1.17 0 2.27-.22 3.298-.662a8.524 8.524 0 0 0 2.688-1.81 8.524 8.524 0 0 0 1.81-2.688 8.255 8.255 0 0 0 .663-3.298c0-1.17-.221-2.264-.663-3.28a8.583 8.583 0 0 0-1.81-2.67 8.524 8.524 0 0 0-2.688-1.81 8.255 8.255 0 0 0-3.298-.663 8.166 8.166 0 0 0-3.262.663 8.526 8.526 0 0 0-2.688 1.81 8.583 8.583 0 0 0-1.81 2.67 8.127 8.127 0 0 0-.663 3.28c0 1.17.221 2.27.663 3.298a8.524 8.524 0 0 0 1.81 2.688 8.526 8.526 0 0 0 2.688 1.81 8.167 8.167 0 0 0 3.262.663Zm.717-8.207a11.172 11.172 0 0 0-3.316 1.756 11.533 11.533 0 0 0-2.562 2.76c-1.123-1.242-1.745-2.724-1.864-4.444a4.2 4.2 0 0 0 .52.036h.484c2.198 0 4.3-.37 6.308-1.112l.215.502.215.502Zm.896-1.541a17.241 17.241 0 0 0 4.194-2.653 6.698 6.698 0 0 1 1.218 3.907 11.493 11.493 0 0 0-2.652-.322c-.789 0-1.553.083-2.294.25a32.459 32.459 0 0 1-.215-.59 5.152 5.152 0 0 0-.251-.592Zm-5.699 7.025a9.628 9.628 0 0 1 2.294-2.563 9.954 9.954 0 0 1 2.975-1.595c.263.813.478 1.643.645 2.491a30.2 30.2 0 0 1 .394 2.599 6.769 6.769 0 0 1-2.222.358 6.92 6.92 0 0 1-4.086-1.29Zm6.63-4.516c.67-.12 1.28-.18 1.829-.18.884 0 1.72.12 2.509.359a6.902 6.902 0 0 1-1.147 2.688 6.79 6.79 0 0 1-2.15 1.971 23.037 23.037 0 0 0-1.04-4.838Zm2.366-6.237c-.62.502-1.254.962-1.9 1.38a14.88 14.88 0 0 1-2.006 1.093 30.666 30.666 0 0 0-1.309-2.168 24.723 24.723 0 0 0-1.523-2.061 6.498 6.498 0 0 1 1.828-.251c.932 0 1.816.173 2.652.52a7.202 7.202 0 0 1 2.258 1.487Zm-5.232 3.01a17.1 17.1 0 0 1-5.7.969h-.483l-.412-.036a6.928 6.928 0 0 1 1.218-3.01 6.935 6.935 0 0 1 2.473-2.151 22.467 22.467 0 0 1 2.903 4.229Z" fill="#252525"/></svg>