<svg width="30" height="30" fill="none" xmlns="http://www.w3.org/2000/svg"><path d="M14.982 0c2.079 0 4.026.394 5.842 1.183a15.433 15.433 0 0 1 4.767 3.208 15.06 15.06 0 0 1 3.226 4.749C29.606 10.956 30 12.903 30 14.982c0 2.079-.394 4.026-1.183 5.842a15.276 15.276 0 0 1-3.226 4.767 15.276 15.276 0 0 1-4.767 3.226C19.008 29.606 17.061 30 14.982 30c-2.079 0-4.026-.394-5.842-1.183a15.06 15.06 0 0 1-4.75-3.226 15.433 15.433 0 0 1-3.207-4.767C.394 19.008 0 17.061 0 14.982c0-2.079.394-4.026 1.183-5.842A15.212 15.212 0 0 1 4.39 4.39a15.212 15.212 0 0 1 4.75-3.206C10.956.394 12.903 0 14.982 0Zm7.455 11.756a8.642 8.642 0 0 0 1.828-1.9 7.706 7.706 0 0 1-2.115.573 4.144 4.144 0 0 0 1.004-.877c.287-.346.49-.723.61-1.13-.359.192-.73.365-1.112.52a5.822 5.822 0 0 1-1.183.341 4.196 4.196 0 0 0-1.182-.824 3.472 3.472 0 0 0-1.506-.323 3.53 3.53 0 0 0-1.415.287 3.51 3.51 0 0 0-1.147.788c-.323.335-.58.723-.771 1.165a3.53 3.53 0 0 0-.287 1.416c0 .143.006.287.018.43.012.144.03.275.054.395a10.037 10.037 0 0 1-4.194-1.112 10.278 10.278 0 0 1-3.297-2.688 3.447 3.447 0 0 0-.502 1.828c0 .621.15 1.2.448 1.739.299.537.687.973 1.165 1.308-.621-.048-1.17-.203-1.649-.466v.036c0 .908.281 1.69.843 2.347a3.623 3.623 0 0 0 2.096 1.237 3.951 3.951 0 0 1-.484.107 3.179 3.179 0 0 1-.824.018 3.963 3.963 0 0 1-.34-.053 3.74 3.74 0 0 0 1.272 1.792c.61.478 1.32.716 2.133.716a7.06 7.06 0 0 1-2.097 1.165 7.2 7.2 0 0 1-2.885.395 5.305 5.305 0 0 1-.43-.054c.812.526 1.69.932 2.634 1.219.944.286 1.93.43 2.957.43 1.672 0 3.154-.317 4.444-.95s2.372-1.446 3.244-2.437a10.521 10.521 0 0 0 1.99-3.334c.453-1.23.68-2.443.68-3.638v-.466Z" fill="#252525"/></svg>